<?xml version="1.0" encoding="UTF-8"?>
<svg id="Layer_2" data-name="Layer 2" xmlns="http://www.w3.org/2000/svg" viewBox="0 0 440 440">
  <defs>
    <style>
      .cls-1 {
        fill: #231f20;
      }
    </style>
  </defs>
  <g id="Layer_1-2" data-name="Layer 1">
    <g>
      <path class="cls-1" d="M440,220c0,6.74-.3,13.41-.9,20-1.23,13.74-3.73,27.11-7.38,40-3.94,13.95-9.23,27.33-15.7,40-4.73,9.25-10.09,18.11-16.02,26.54-3.26,4.62-6.68,9.11-10.27,13.46-8.95,10.82-18.91,20.78-29.73,29.73-4.35,3.59-8.84,7.01-13.46,10.27-8.43,5.93-17.29,11.29-26.54,16.02-12.67,6.47-26.05,11.76-40,15.7-12.89,3.65-26.26,6.15-40,7.38-6.59.6-13.26.9-20,.9h-100v-80h91.62c2.74.16,5.5.24,8.28.24,38.29,0,72.98-15.35,98.27-40.24.62-.61,1.23-1.22,1.83-1.84,20.39-20.8,34.33-47.92,38.62-78.16.82-5.77,1.29-11.65,1.38-17.62.01-.75.02-1.5.02-2.26s-.01-1.51-.02-2.26c-.09-6.06-.57-12.02-1.41-17.86h-.01c-.12-.88-.25-1.76-.4-2.64-.14-.87-.29-1.75-.46-2.62-.15-.86-.31-1.72-.49-2.57-.02-.1-.04-.19-.06-.29-.15-.76-.31-1.51-.48-2.27-.23-1.05-.48-2.1-.74-3.15-.17-.68-.34-1.36-.52-2.04-.22-.85-.45-1.69-.69-2.54-.17-.6-.34-1.19-.52-1.78-.15-.56-.32-1.11-.5-1.65-.33-1.1-.68-2.19-1.06-3.27-.18-.53-.36-1.05-.54-1.57-.02-.05-.04-.1-.05-.15-.24-.67-.48-1.35-.73-2.01-.49-1.34-1-2.67-1.54-3.99-1.01-2.53-2.11-5.01-3.27-7.46-.15-.31-.3-.62-.46-.93-.48-.99-.98-1.98-1.48-2.96s-1.02-1.95-1.55-2.92c-.42-.77-.85-1.53-1.28-2.29-.75-1.33-1.52-2.63-2.33-3.93-.44-.73-.9-1.47-1.37-2.19-.45-.73-.93-1.45-1.4-2.17-.57-.85-1.14-1.7-1.74-2.54-.53-.77-1.07-1.53-1.62-2.29-.15-.19-.28-.38-.43-.57-.51-.71-1.04-1.41-1.58-2.11-.55-.73-1.12-1.46-1.7-2.18-1.37-1.73-2.79-3.43-4.25-5.09-.63-.73-1.28-1.45-1.93-2.16-.52-.58-1.05-1.15-1.59-1.71-.4-.44-.82-.87-1.24-1.29-.05-.07-.12-.13-.17-.19-.56-.58-1.13-1.15-1.7-1.71-1.9-1.9-3.86-3.73-5.86-5.51-.56-.5-1.13-.99-1.69-1.47-.65-.57-1.31-1.12-1.97-1.66-.66-.56-1.33-1.1-2-1.62-2.03-1.63-4.1-3.19-6.21-4.68-.49-.36-.99-.71-1.49-1.04-.29-.21-.59-.42-.88-.61-.61-.43-1.23-.84-1.85-1.23-.71-.48-1.42-.94-2.14-1.38-.05-.04-.1-.07-.15-.1-.68-.44-1.37-.86-2.07-1.28-2.72-1.65-5.5-3.21-8.35-4.67-.5-.26-1-.52-1.51-.77-.39-.2-.79-.4-1.18-.59-2.68-1.31-5.41-2.54-8.19-3.68-.92-.38-1.84-.75-2.78-1.11-.65-.25-1.3-.5-1.95-.74-1.19-.44-2.39-.86-3.6-1.27-.62-.22-1.25-.42-1.87-.62-.63-.2-1.26-.4-1.89-.59-.21-.07-.41-.13-.62-.2-.5-.15-1.02-.3-1.53-.45-.77-.22-1.55-.44-2.33-.65-2.5-.69-5.04-1.3-7.6-1.83-.86-.18-1.71-.35-2.57-.51-1.72-.34-3.45-.64-5.19-.9-.41-.07-.83-.13-1.24-.19-1.3-.19-2.6-.37-3.91-.5-.62-.06-1.24-.14-1.86-.2-1.18-.12-2.36-.22-3.55-.31-.47-.04-.93-.08-1.4-.1-.27-.02-.55-.04-.82-.05-.45-.04-.9-.06-1.35-.08-1.19-.06-2.39-.1-3.59-.13-.52-.02-1.05-.03-1.57-.03-.68-.02-1.37-.02-2.05-.02H0V20.68C0,9.26,9.26,0,20.68,0h199.32c6.74,0,13.41.3,20,.9,13.74,1.23,27.11,3.73,40,7.38,13.95,3.94,27.33,9.23,40,15.71,9.24,4.72,18.1,10.07,26.52,16.01,4.63,3.25,9.12,6.68,13.48,10.28,10.82,8.94,20.78,18.89,29.72,29.72,3.59,4.35,7.02,8.84,10.28,13.47,5.93,8.42,11.29,17.29,16.02,26.53,6.47,12.67,11.76,26.05,15.7,40,3.65,12.89,6.15,26.26,7.38,40,.6,6.59.9,13.26.9,20Z"/>
      <path class="cls-1" d="M320,217.42v5.16c-.15,5.95-.82,11.77-1.97,17.42-3,14.78-9.26,28.37-18,40-5.7,7.58-12.45,14.33-20.03,20.02-11.63,8.73-25.22,14.98-40,17.98-6.46,1.31-13.15,2-20,2H80v120H20.22c-11.17,0-20.22-9.05-20.22-20.22v-179.78h219.52c10.84,0,20.07-8.42,20.47-19.26.41-11.38-8.69-20.74-19.99-20.74H0v-80h220c6.85,0,13.54.69,20,2,14.78,3,28.37,9.26,40,17.98,7.58,5.7,14.33,12.44,20.03,20.02,8.73,11.63,15,25.22,18,40,1.15,5.65,1.82,11.47,1.97,17.42Z"/>
    </g>
  </g>
</svg>