<?xml version="1.0" encoding="UTF-8" standalone="no"?>
<!-- Created with Inkscape (http://www.inkscape.org/) -->

<svg
   width="101.55712mm"
   height="95.197304mm"
   viewBox="0 0 101.55712 95.197304"
   version="1.1"
   id="svg1"
   xml:space="preserve"
   sodipodi:docname="light.svg"
   inkscape:version="1.4.2 (ebf0e94, 2025-05-08)"
   xmlns:inkscape="http://www.inkscape.org/namespaces/inkscape"
   xmlns:sodipodi="http://sodipodi.sourceforge.net/DTD/sodipodi-0.dtd"
   xmlns="http://www.w3.org/2000/svg"
   xmlns:svg="http://www.w3.org/2000/svg"><sodipodi:namedview
     id="namedview1"
     pagecolor="#ffffff"
     bordercolor="#000000"
     borderopacity="0.25"
     inkscape:showpageshadow="2"
     inkscape:pageopacity="0.0"
     inkscape:pagecheckerboard="0"
     inkscape:deskcolor="#d1d1d1"
     inkscape:document-units="mm"
     inkscape:zoom="1.1545978"
     inkscape:cx="158.49676"
     inkscape:cy="149.40268"
     inkscape:window-width="2560"
     inkscape:window-height="1377"
     inkscape:window-x="-8"
     inkscape:window-y="-8"
     inkscape:window-maximized="1"
     inkscape:current-layer="layer1" /><defs
     id="defs1" /><g
     id="layer1"
     transform="translate(-54.221443,-26.651354)"><path
       id="rect1"
       style="display:inline;fill:#000000;stroke-width:8.33632"
       d="M 54.221441,26.651353 V 121.84865 H 78.695916 V 49.616875 h 28.821504 c 4.31707,0 7.95009,0.404625 10.89908,1.21388 2.97938,0.776885 5.60878,1.958346 7.88892,3.544487 2.73617,1.909842 4.81879,4.353792 6.24768,7.331852 1.45929,2.978059 2.18901,6.554853 2.18901,10.730611 0,3.237022 -0.53222,6.409708 -1.59628,9.517251 -1.06407,3.075173 -2.58381,5.664456 -4.55993,7.768517 -2.70577,2.848577 -5.73069,5.001346 -9.0749,6.457998 -3.31381,1.456663 -7.4489,2.18488 -12.40441,2.18488 H 96.207508 V 121.84865 H 111.77918 A 43.999196,43.920156 0 0 0 155.77856,77.928326 V 71.558172 A 44.987394,44.906579 0 0 0 110.79112,26.651353 Z m 41.986067,36.463923 v 21.655529 h 5.016232 c 2.9794,0 5.42687,-0.193957 7.34219,-0.5824 1.94573,-0.388443 3.57252,-1.165278 4.87981,-2.330607 1.12487,-1.03584 1.93047,-2.26592 2.41691,-3.69021 0.51683,-1.45666 0.77514,-3.221007 0.77514,-5.2927 0,-2.039324 -0.51663,-3.787465 -1.55029,-5.244124 -1.03366,-1.489031 -2.23479,-2.52464 -3.60288,-3.107304 -1.82412,-0.776886 -3.60268,-1.197715 -5.33559,-1.262456 -1.73291,-0.09711 -4.04318,-0.145728 -6.931362,-0.145728 z" /></g></svg>
