<?xml version="1.0" encoding="UTF-8" standalone="no"?>
<!-- Created with Inkscape (http://www.inkscape.org/) -->

<svg
   width="101.55712mm"
   height="95.197296mm"
   viewBox="0 0 101.55712 95.197296"
   version="1.1"
   id="svg1"
   xml:space="preserve"
   sodipodi:docname="dark.svg"
   inkscape:version="1.4.2 (ebf0e94, 2025-05-08)"
   xmlns:inkscape="http://www.inkscape.org/namespaces/inkscape"
   xmlns:sodipodi="http://sodipodi.sourceforge.net/DTD/sodipodi-0.dtd"
   xmlns="http://www.w3.org/2000/svg"
   xmlns:svg="http://www.w3.org/2000/svg"><sodipodi:namedview
     id="namedview1"
     pagecolor="#ffffff"
     bordercolor="#000000"
     borderopacity="0.25"
     inkscape:showpageshadow="2"
     inkscape:pageopacity="0.0"
     inkscape:pagecheckerboard="0"
     inkscape:deskcolor="#d1d1d1"
     inkscape:document-units="mm"
     inkscape:zoom="0.40821198"
     inkscape:cx="-1245.6763"
     inkscape:cy="1039.9009"
     inkscape:window-width="2560"
     inkscape:window-height="1377"
     inkscape:window-x="-8"
     inkscape:window-y="-8"
     inkscape:window-maximized="1"
     inkscape:current-layer="svg1" /><defs
     id="defs1" /><g
     id="layer1"
     transform="translate(-54.221446,-175.15137)"><path
       id="rect1-5"
       style="display:inline;fill:#ffffff;stroke-width:8.33632"
       d="m 54.221445,175.15135 v 95.19729 H 78.69592 v -72.23177 h 28.82149 c 4.31707,0 7.95009,0.40462 10.89908,1.21388 2.97938,0.77688 5.60878,1.95835 7.88892,3.54449 2.73617,1.90984 4.81879,4.35379 6.24768,7.33185 1.45929,2.97806 2.18901,6.55485 2.18901,10.73061 0,3.23702 -0.53222,6.40971 -1.59628,9.51725 -1.06407,3.07517 -2.58381,5.66446 -4.55993,7.76852 -2.70577,2.84857 -5.73069,5.00134 -9.0749,6.45799 -3.31381,1.45667 -7.4489,2.18488 -12.40441,2.18488 H 96.207512 v 23.4823 h 15.571658 a 43.999196,43.920156 0 0 0 43.99938,-43.92032 v -6.37015 a 44.987394,44.906579 0 0 0 -44.98744,-44.90682 z m 41.986067,36.46392 v 21.65553 h 5.016218 c 2.9794,0 5.42687,-0.19396 7.34219,-0.5824 1.94573,-0.38844 3.57252,-1.16528 4.87981,-2.33061 1.12487,-1.03584 1.93047,-2.26592 2.41691,-3.69021 0.51683,-1.45666 0.77514,-3.22101 0.77514,-5.2927 0,-2.03932 -0.51663,-3.78746 -1.55029,-5.24412 -1.03366,-1.48903 -2.23479,-2.52464 -3.60288,-3.10731 -1.82412,-0.77688 -3.60268,-1.19771 -5.33559,-1.26245 -1.73291,-0.0971 -4.04318,-0.14573 -6.931349,-0.14573 z" /></g></svg>
